<?xml version="1.0" encoding="UTF-8" standalone="no"?>
<svg width="36px" height="36px" viewBox="0 0 36 36" version="1.1" xmlns="http://www.w3.org/2000/svg" xmlns:xlink="http://www.w3.org/1999/xlink">
    <!-- Generator: Sketch 3.8.3 (29802) - http://www.bohemiancoding.com/sketch -->
    <title>go-down-icon</title>
    <desc>Created with Sketch.</desc>
    <defs></defs>
    <g id="Home-Page" stroke="none" stroke-width="1" fill="none" fill-rule="evenodd">
        <g id="Desktop-Copy-4" transform="translate(-494.000000, -660.000000)" fill="#F7D5CF">
            <g id="Go-Down" transform="translate(494.000000, 660.000000)">
                <path d="M18,33 L18,33 C26.2842712,33 33,26.2842712 33,18 C33,9.71572875 26.2842712,3 18,3 C9.71572875,3 3,9.71572875 3,18 C3,26.2842712 9.71572875,33 18,33 L18,33 Z M18,36 C8.0588745,36 0,27.9411255 0,18 C0,8.0588745 8.0588745,0 18,0 C27.9411255,0 36,8.0588745 36,18 C36,27.9411255 27.9411255,36 18,36 Z M18.5982143,23.0714286 C18.4851185,23.1845244 18.3511912,23.2410714 18.1964286,23.2410714 C18.0416659,23.2410714 17.9077387,23.1845244 17.7946429,23.0714286 L11.1696429,16.4553571 C11.0565471,16.3422613 11,16.206846 11,16.0491071 C11,15.8913683 11.0565471,15.7559529 11.1696429,15.6428571 L12.6517857,14.1696429 C12.7648815,14.0565471 12.8988088,14 13.0535714,14 C13.2083341,14 13.3422613,14.0565471 13.4553571,14.1696429 L18.1964286,18.9107143 L22.9375,14.1696429 C23.0505958,14.0565471 23.184523,14 23.3392857,14 C23.4940484,14 23.6279756,14.0565471 23.7410714,14.1696429 L25.2232143,15.6428571 C25.3363101,15.7559529 25.3928571,15.8913683 25.3928571,16.0491071 C25.3928571,16.206846 25.3363101,16.3422613 25.2232143,16.4553571 L18.5982143,23.0714286 Z" id="go-down-icon"></path>
            </g>
        </g>
    </g>
</svg>