<?xml version="1.0" encoding="UTF-8" standalone="no"?>
<svg width="34px" height="34px" viewBox="0 0 34 34" version="1.1" xmlns="http://www.w3.org/2000/svg" xmlns:xlink="http://www.w3.org/1999/xlink" xmlns:sketch="http://www.bohemiancoding.com/sketch/ns">
    <!-- Generator: Sketch 3.3.3 (12081) - http://www.bohemiancoding.com/sketch -->
    <title>Mask</title>
    <desc>Created with Sketch.</desc>
    <defs></defs>
    <g id="Sign-Up" stroke="none" stroke-width="1" fill="none" fill-rule="evenodd" sketch:type="MSPage">
        <g id="Sign-up-Copy-2" sketch:type="MSArtboardGroup" transform="translate(-25.000000, -74.000000)" fill="#FAC812">
            <g id="Logo-Copy" sketch:type="MSLayerGroup" transform="translate(25.000000, 74.000000)">
                <path d="M13.0563063,33.1707317 L30.2891197,33.1707317 C31.9441036,33.1707317 33.2944785,31.8266077 33.2944785,30.1685468 L33.2944785,3.00218492 C33.2944785,1.34141527 31.9489336,0 30.2891197,0 L3.41640175,0 C1.76141783,0 0.411042945,1.34412397 0.411042945,3.00218492 L0.411042945,12.9233171 L3.71911656,12.9233171 L3.71911656,26.3276098 C3.71911656,29.4025366 5.16927607,30.6862439 7.6848589,30.6862439 C10.2004417,30.6862439 11.6506012,29.4025366 11.6506012,26.4171707 L11.6506012,12.9233171 L15.9714847,12.9233171 L15.9714847,26.656 C15.9714847,28.8412083 15.4997179,31.5816199 13.0563063,33.1707317 L13.0563063,33.1707317 Z" id="Mask" sketch:type="MSShapeGroup"></path>
            </g>
        </g>
    </g>
</svg>