<?xml version="1.0" encoding="UTF-8" standalone="no"?>
<svg width="134px" height="34px" viewBox="0 0 134 34" version="1.1" xmlns="http://www.w3.org/2000/svg" xmlns:xlink="http://www.w3.org/1999/xlink" xmlns:sketch="http://www.bohemiancoding.com/sketch/ns">
    <!-- Generator: Sketch 3.3.3 (12081) - http://www.bohemiancoding.com/sketch -->
    <title>Logo Copy</title>
    <desc>Created with Sketch.</desc>
    <defs></defs>
    <g id="Sign-Up" stroke="none" stroke-width="1" fill="none" fill-rule="evenodd" sketch:type="MSPage">
        <g id="Sign-up" sketch:type="MSArtboardGroup" transform="translate(-25.000000, -74.000000)" fill="#FAC812">
            <g id="Logo-Copy" sketch:type="MSLayerGroup" transform="translate(25.000000, 74.000000)">
                <path d="M13.0563063,33.1707317 L30.2891197,33.1707317 C31.9441036,33.1707317 33.2944785,31.8266077 33.2944785,30.1685468 L33.2944785,3.00218492 C33.2944785,1.34141527 31.9489336,0 30.2891197,0 L3.41640175,0 C1.76141783,0 0.411042945,1.34412397 0.411042945,3.00218492 L0.411042945,12.9233171 L3.71911656,12.9233171 L3.71911656,26.3276098 C3.71911656,29.4025366 5.16927607,30.6862439 7.6848589,30.6862439 C10.2004417,30.6862439 11.6506012,29.4025366 11.6506012,26.4171707 L11.6506012,12.9233171 L15.9714847,12.9233171 L15.9714847,26.656 C15.9714847,28.8412083 15.4997179,31.5816199 13.0563063,33.1707317 L13.0563063,33.1707317 Z" id="Mask" sketch:type="MSShapeGroup"></path>
                <path d="M41.3246135,19.1925854 C41.3246135,22.4466341 42.3900368,27.0142439 49.6112393,27.0142439 C56.8324417,27.0142439 57.897865,22.4764878 57.897865,19.1925854 L57.897865,5.45990244 L53.5769816,5.45990244 L53.5769816,18.9537561 C53.5769816,21.939122 52.1268221,23.2228293 49.6112393,23.2228293 C47.0956564,23.2228293 45.6454969,21.939122 45.6454969,18.8641951 L45.6454969,5.45990244 L41.3246135,5.45990244 L41.3246135,19.1925854 Z M61.419681,31.731122 L65.4446135,31.731122 L65.4446135,24.7752195 C66.0957055,26.0887805 67.7234356,26.8948293 69.469546,26.8948293 C72.369865,26.8948293 75.3885644,24.7752195 75.3885644,18.9239024 C75.3885644,14.0279024 73.2873129,11.1022439 69.7654969,11.1022439 C67.4866748,11.1022439 66.1253006,12.3560976 65.4150184,13.8487805 L65.4150184,11.5500488 L61.419681,11.5500488 L61.419681,31.731122 Z M65.4150184,18.6850732 C65.4150184,16.4759024 66.2140859,14.4458537 68.2561472,14.4458537 C70.2686135,14.4458537 71.1860613,16.3266341 71.1860613,19.0731707 C71.1860613,21.939122 70.1502331,23.6706341 68.3449325,23.6706341 C66.4212515,23.6706341 65.4150184,21.7002927 65.4150184,19.3418537 L65.4150184,18.6850732 Z M76.6315583,24.7752195 C78.2592883,26.2380488 80.5085153,27.0142439 83.1720736,27.0142439 C86.1315828,27.0142439 89.2390675,25.4021463 89.2390675,22.0585366 C89.2390675,16.7445854 81.2483926,17.8790244 81.2483926,15.3414634 C81.2483926,14.416 82.0474601,14.0577561 82.964908,14.0577561 C84.5630429,14.0577561 86.3387485,14.8339512 87.137816,15.6101463 L89.0023067,12.9233171 C87.4929571,11.7590244 85.5988712,11.1022439 83.1128834,11.1022439 C80.064589,11.1022439 77.1642699,12.5352195 77.1642699,15.7892683 C77.1642699,21.3420488 85.1845399,19.7896585 85.1845399,22.5660488 C85.1845399,23.6109268 84.0599264,24.028878 82.9945031,24.028878 C81.2187975,24.028878 79.443092,23.073561 78.5256442,22.0286829 L76.6315583,24.7752195 Z M91.6066748,26.5365854 L95.6316074,26.5365854 L95.6316074,18.9537561 C95.6316074,16.0878049 96.8450061,14.6548293 98.5615215,14.6548293 C100.218847,14.6548293 101.017914,15.8489756 101.017914,17.9387317 L101.017914,26.5365854 L105.042847,26.5365854 L105.042847,17.2520976 C105.042847,13.3412683 103.533497,11.1022439 100.278037,11.1022439 C97.8808344,11.1022439 96.3418896,12.3859512 95.6316074,13.8786341 L95.6316074,5.45990244 L91.6066748,5.45990244 L91.6066748,26.5365854 Z M114.779632,27.0142439 C119.544442,27.0142439 122.060025,23.5512195 122.060025,19.0433171 C122.060025,14.505561 119.544442,11.1022439 114.779632,11.1022439 C110.074012,11.1022439 107.499239,14.5354146 107.499239,19.0433171 C107.499239,23.5512195 109.926037,27.0142439 114.779632,27.0142439 L114.779632,27.0142439 Z M114.868417,23.8796098 C112.707975,23.8796098 111.701742,21.9092683 111.701742,19.0433171 C111.701742,16.2072195 112.707975,14.2070244 114.779632,14.2070244 C116.821693,14.2070244 117.857521,16.2072195 117.857521,19.0433171 C117.857521,21.9092683 116.880883,23.8796098 114.868417,23.8796098 L114.868417,23.8796098 Z M125.789006,22.5660488 C125.789006,25.1334634 126.676859,27.0142439 130.050699,27.0142439 C131.086528,27.0142439 132.092761,26.8649756 133.069399,26.4470244 L132.773448,23.5810732 C132.240736,23.8199024 131.73762,23.8796098 131.352883,23.8796098 C130.10989,23.8796098 129.784344,23.2228293 129.784344,22.0286829 L129.784344,14.1771707 L132.921423,14.1771707 L132.921423,11.5500488 L129.784344,11.5500488 L129.784344,7.25112195 L127.268761,7.25112195 C126.824834,9.72897561 126.558479,11.5500488 123.83573,11.5500488 L123.362209,11.5500488 L123.362209,14.1771707 L125.789006,14.1771707 L125.789006,22.5660488 Z" id="Upshot" sketch:type="MSShapeGroup"></path>
            </g>
        </g>
    </g>
</svg>