<svg xmlns="http://www.w3.org/2000/svg" width="1000" height="1000" viewBox="0 0 1000 1000">
  <defs>
    <style>
      .cls-1 {
        fill: #9b9b9b;
        fill-rule: evenodd;
      }
    </style>
  </defs>
  <g id="Artboard_1" data-name="Artboard 1">
    <path id="fa-quote-left" class="cls-1" d="M440.008,496.358q-27.772-27.811-67.428-27.815H261.521a47.442,47.442,0,0,1-47.6-47.682V404.967q0-52.641,37.185-89.9t89.74-37.251H372.58a32.2,32.2,0,0,0,31.731-31.789V182.45a32.2,32.2,0,0,0-31.731-31.788H340.849a246.868,246.868,0,0,0-98.416,20.116q-46.854,20.117-81.063,54.388t-54.29,81.208A248.1,248.1,0,0,0,87,404.967V754.636q0,39.743,27.765,67.549,27.76,27.824,67.428,27.815H372.58q39.66,0,67.428-27.815t27.765-67.549V563.907Q467.773,524.176,440.008,496.358Zm444.236,0q-27.772-27.811-67.429-27.815H705.756a47.44,47.44,0,0,1-47.6-47.682V404.967q0-52.641,37.185-89.9t89.739-37.251h31.731a32.2,32.2,0,0,0,31.731-31.789V182.45a32.2,32.2,0,0,0-31.731-31.788H785.084a246.872,246.872,0,0,0-98.416,20.116q-46.853,20.117-81.063,54.388t-54.29,81.208a248.108,248.108,0,0,0-20.08,98.593V754.636q0,39.743,27.765,67.549Q586.76,850.009,626.429,850H816.815q39.66,0,67.429-27.815t27.764-67.549V563.907Q912.008,524.176,884.244,496.358Z"/>
  </g>
</svg>
