<svg xmlns="http://www.w3.org/2000/svg" width="1000" height="1000" viewBox="0 0 1000 1000">
  <defs>
    <style>
      .cls-1 {
        fill: #9b9b9b;
        fill-rule: evenodd;
      }
    </style>
  </defs>
  <path id="fa-angle-right" class="cls-1" d="M551.714,481.068L172.742,102.375q-8.139-8.114-18.7-8.127t-18.705,8.127L94.671,143.007q-8.139,8.133-8.132,18.691t8.132,18.691l319.6,319.37-319.6,319.37q-8.139,8.133-8.132,18.691t8.132,18.691l40.662,40.633q8.12,8.132,18.705,8.126,10.558,0,18.7-8.126L551.714,518.45q8.119-8.113,8.132-18.691,0-10.551-8.132-18.691h0Z"/>
  <path id="fa-angle-right_copy" data-name="fa-angle-right copy" class="cls-1" d="M910.449,481.068L531.478,102.375q-8.139-8.114-18.7-8.127t-18.705,8.127l-40.662,40.632q-8.139,8.133-8.132,18.691t8.132,18.691l319.6,319.37-319.6,319.37q-8.139,8.133-8.132,18.691t8.132,18.691l40.662,40.633q8.121,8.132,18.705,8.126,10.56,0,18.7-8.126L910.449,518.45q8.12-8.113,8.132-18.691,0-10.551-8.132-18.691h0Z"/>
</svg>
