<?xml version="1.0" encoding="UTF-8"?>
<svg width="40px" height="41px" viewBox="0 0 40 41" version="1.1" xmlns="http://www.w3.org/2000/svg" xmlns:xlink="http://www.w3.org/1999/xlink">
    <!-- Generator: Sketch 40.2 (33826) - http://www.bohemiancoding.com/sketch -->
    <title>Mask Copy 2</title>
    <desc>Created with Sketch.</desc>
    <defs></defs>
    <g id="Commenting-Flow" stroke="none" stroke-width="1" fill="none" fill-rule="evenodd">
        <g id="Desktop" transform="translate(-20.000000, -484.000000)" fill="#FAC812">
            <g id="Nav-Bar-Copy-6" transform="translate(-2.000000, 466.000000)">
                <path d="M37.3819248,58.7142857 L58.9934988,58.7142857 C60.6576906,58.7142857 62,57.3682293 62,55.7077845 L62,21.7207869 C62,20.0565951 60.6539436,18.7142857 58.9934988,18.7142857 L25.0065012,18.7142857 C23.3423094,18.7142857 22,20.0603422 22,21.7207869 L22,34.2982857 L26.024,34.2982857 L26.024,50.4622857 C26.024,54.1702857 27.788,55.7182857 30.848,55.7182857 C33.908,55.7182857 35.672,54.1702857 35.672,50.5702857 L35.672,34.2982857 L40.928,34.2982857 L40.928,50.8582857 C40.928,53.4933898 40.3541344,56.7980038 37.3819248,58.7142857 Z" id="Mask-Copy-2"></path>
            </g>
        </g>
    </g>
</svg>