<?xml version="1.0" encoding="UTF-8" standalone="no"?>
<svg width="211px" height="32px" viewBox="0 0 211 32" version="1.1" xmlns="http://www.w3.org/2000/svg" xmlns:xlink="http://www.w3.org/1999/xlink">
    <!-- Generator: Sketch 39.1 (31720) - http://www.bohemiancoding.com/sketch -->
    <title>Group 3</title>
    <desc>Created with Sketch.</desc>
    <defs></defs>
    <g id="Page-1" stroke="none" stroke-width="1" fill="none" fill-rule="evenodd">
        <g id="Desktop-Copy-2" transform="translate(-563.000000, -421.000000)" fill="#3A4351">
            <g id="Group-3" transform="translate(563.000000, 421.000000)">
                <path d="M55.3211268,23.8197183 L57.371831,23.8197183 L53.6760563,18.456338 C55.9521127,17.7126761 57.2140845,15.9549296 57.2140845,13.3408451 C57.2140845,9.98309859 54.9380282,8.04507042 50.9943662,8.04507042 L45,8.04507042 L45,23.8197183 L46.8028169,23.8197183 L46.8028169,18.8394366 L50.9943662,18.8394366 C51.3549296,18.8394366 51.715493,18.8169014 52.0535211,18.7943662 L55.3211268,23.8197183 Z M46.8028169,17.1042254 L46.8028169,9.78028169 L50.9943662,9.78028169 C53.856338,9.78028169 55.4788732,10.9971831 55.4788732,13.3859155 C55.4788732,15.8422535 53.856338,17.1042254 50.9943662,17.1042254 L46.8028169,17.1042254 Z M61.458216,21.656338 C60.8272301,21.656338 60.3539906,22.1521127 60.3539906,22.828169 C60.3539906,23.5042254 60.8272301,24 61.458216,24 C62.0666667,24 62.5399061,23.5042254 62.5399061,22.828169 C62.5399061,22.1521127 62.0666667,21.656338 61.458216,21.656338 L61.458216,21.656338 Z M90.3107981,23.8197183 L90.3107981,8.04507042 L88.1023474,8.04507042 L82.3558686,19.4028169 L76.5868545,8.04507042 L74.3558686,8.04507042 L74.3558686,23.8197183 L76.0685446,23.8197183 L76.0685446,10.8169014 L81.7924883,22.1521127 L82.8741784,22.1521127 L88.6206573,10.8169014 L88.6431925,23.8197183 L90.3107981,23.8197183 Z M105.394366,19.8309859 L107.152113,23.8197183 L109.112676,23.8197183 L102.059155,8.04507042 L100.188732,8.04507042 L93.1126761,23.8197183 L95.028169,23.8197183 L96.7859155,19.8309859 L105.394366,19.8309859 Z M104.628169,18.0957746 L97.5521127,18.0957746 L101.067606,10.0957746 L104.628169,18.0957746 Z M122.506103,16.1126761 L122.506103,20.8676056 C121.289202,21.7014085 119.779343,22.1971831 118.359624,22.1971831 C114.753991,22.1971831 111.846948,19.4253521 111.846948,15.9323944 C111.846948,12.4619718 114.731455,9.69014085 118.337089,9.69014085 C120.094836,9.69014085 121.830047,10.3661972 123.114554,11.515493 L124.151174,10.1633803 C122.641315,8.83380282 120.523005,8 118.337089,8 C113.694836,8 110.021596,11.4929577 110.021596,15.9323944 C110.021596,20.371831 113.6723,23.9098592 118.246948,23.9098592 C120.365258,23.9098592 122.551174,23.0760563 124.106103,21.8366197 L124.106103,16.1126761 L122.506103,16.1126761 Z M139.775587,16.1126761 L139.775587,20.8676056 C138.558685,21.7014085 137.048826,22.1971831 135.629108,22.1971831 C132.023474,22.1971831 129.116432,19.4253521 129.116432,15.9323944 C129.116432,12.4619718 132.000939,9.69014085 135.606573,9.69014085 C137.364319,9.69014085 139.099531,10.3661972 140.384038,11.515493 L141.420657,10.1633803 C139.910798,8.83380282 137.792488,8 135.606573,8 C130.964319,8 127.29108,11.4929577 127.29108,15.9323944 C127.29108,20.371831 130.941784,23.9098592 135.516432,23.9098592 C137.634742,23.9098592 139.820657,23.0760563 141.375587,21.8366197 L141.375587,16.1126761 L139.775587,16.1126761 Z M147.850704,23.8197183 L147.850704,8.04507042 L146.047887,8.04507042 L146.047887,23.8197183 L147.850704,23.8197183 Z M163.632864,9.78028169 L163.632864,8.04507042 L152.928639,8.04507042 L152.928639,23.8197183 L163.925822,23.8197183 L163.925822,22.1070423 L154.731455,22.1070423 L154.731455,16.6985915 L162.686385,16.6985915 L162.686385,14.9633803 L154.731455,14.9633803 L154.731455,9.78028169 L163.632864,9.78028169 Z M182.615024,8 C178.040376,8 174.389671,11.4929577 174.389671,15.9098592 C174.389671,20.371831 177.995305,23.9098592 182.547418,23.9098592 C184.733333,23.9098592 186.851643,22.9408451 188.406573,21.4760563 L187.302347,20.2366197 C186.062911,21.4084507 184.37277,22.1295775 182.637559,22.1295775 C179.076995,22.1295775 176.215024,19.3577465 176.215024,15.9098592 C176.215024,12.4394366 179.076995,9.69014085 182.637559,9.69014085 C184.37277,9.69014085 186.085446,10.4338028 187.302347,11.6732394 L188.384038,10.2985915 C186.874178,8.87887324 184.778404,8 182.615024,8 L182.615024,8 Z M201.867606,19.8309859 L203.625352,23.8197183 L205.585916,23.8197183 L198.532394,8.04507042 L196.661972,8.04507042 L189.585916,23.8197183 L191.501408,23.8197183 L193.259155,19.8309859 L201.867606,19.8309859 Z M201.101408,18.0957746 L194.025352,18.0957746 L197.540845,10.0957746 L201.101408,18.0957746 Z M210.168075,23.8197183 L210.168075,8.04507042 L208.365258,8.04507042 L208.365258,23.8197183 L210.168075,23.8197183 Z" id="R.-MAGGIE-CAI"></path>
                <g id="logo2">
                    <g id="Asset-1">
                        <g id="Layer_2">
                            <g id="Layer_1-2">
                                <path d="M27.4178404,4.58215962 C21.0779729,-1.51907793 11.0207591,-1.42263428 4.79906238,4.79906238 C-1.42263428,11.0207591 -1.51907793,21.0779729 4.58215962,27.4178404 C10.9220271,33.5190779 20.9792409,33.4226343 27.2009376,27.2009376 C33.4226343,20.9792409 33.5190779,10.9220271 27.4178404,4.58215962 L27.4178404,4.58215962 Z M9.23943662,11.4321127 L9.23943662,3.86328638 C10.7357713,3.03216503 12.371408,2.4815219 14.0657277,2.23849765 L9.23943662,11.4321127 Z M16,3.39455399 L22.6614085,15.9849765 L16,28.6039437 L9.38516432,16 L16,3.39455399 Z M9.23943662,20.5678873 L14.0657277,29.7615023 C12.371408,29.5184781 10.7357713,28.967835 9.23943662,28.1367136 L9.23943662,20.5678873 Z M22.7605634,20.6249765 L22.7605634,28.1367136 C21.2683243,28.9719435 19.6337783,29.522396 17.9402817,29.76 L22.7605634,20.6249765 Z M22.7605634,11.3517371 L17.9425352,2.24 C19.635206,2.47764179 21.2689614,3.02783073 22.7605634,3.86253521 L22.7605634,11.3517371 Z M2.10328638,16 C2.09380894,11.9302512 3.88046219,8.06365865 6.98591549,5.43323944 L6.98591549,26.5667606 C3.88046219,23.9363413 2.09380894,20.0697488 2.10328638,16 L2.10328638,16 Z M25.0140845,26.5675117 L25.0140845,5.43248826 C28.1117722,8.069121 29.8966077,11.932138 29.8966077,16 C29.8966077,20.067862 28.1117722,23.930879 25.0140845,26.5675117 L25.0140845,26.5675117 Z" id="Shape"></path>
                            </g>
                        </g>
                    </g>
                </g>
            </g>
        </g>
    </g>
</svg>