<?xml version="1.0" encoding="UTF-8" standalone="no"?>
<svg width="232px" height="32px" viewBox="0 0 232 32" version="1.1" xmlns="http://www.w3.org/2000/svg" xmlns:xlink="http://www.w3.org/1999/xlink">
    <!-- Generator: Sketch 39.1 (31720) - http://www.bohemiancoding.com/sketch -->
    <title>Group 3</title>
    <desc>Created with Sketch.</desc>
    <defs></defs>
    <g id="Page-1" stroke="none" stroke-width="1" fill="none" fill-rule="evenodd">
        <g id="Desktop-Copy-2" transform="translate(-562.000000, -421.000000)" fill="#3A4351">
            <g id="Group-3" transform="translate(562.000000, 421.000000)">
                <path d="M57.6112676,24.7971831 L59.9183099,24.7971831 L55.7605634,18.7633803 C58.3211268,17.9267606 59.7408451,15.9492958 59.7408451,13.0084507 C59.7408451,9.23098592 57.1802817,7.05070423 52.743662,7.05070423 L46,7.05070423 L46,24.7971831 L48.028169,24.7971831 L48.028169,19.1943662 L52.743662,19.1943662 C53.1492958,19.1943662 53.5549296,19.1690141 53.9352113,19.143662 L57.6112676,24.7971831 Z M48.028169,17.2422535 L48.028169,9.0028169 L52.743662,9.0028169 C55.9633803,9.0028169 57.7887324,10.371831 57.7887324,13.0591549 C57.7887324,15.8225352 55.9633803,17.2422535 52.743662,17.2422535 L48.028169,17.2422535 Z M64.515493,22.3633803 C63.8056338,22.3633803 63.2732394,22.9211268 63.2732394,23.6816901 C63.2732394,24.4422535 63.8056338,25 64.515493,25 C65.2,25 65.7323944,24.4422535 65.7323944,23.6816901 C65.7323944,22.9211268 65.2,22.3633803 64.515493,22.3633803 L64.515493,22.3633803 Z M96.9746479,24.7971831 L96.9746479,7.05070423 L94.4901409,7.05070423 L88.0253521,19.828169 L81.5352113,7.05070423 L79.0253521,7.05070423 L79.0253521,24.7971831 L80.9521127,24.7971831 L80.9521127,10.1690141 L87.3915493,22.9211268 L88.6084507,22.9211268 L95.0732395,10.1690141 L95.0985916,24.7971831 L96.9746479,24.7971831 Z M113.943662,20.3098592 L115.921127,24.7971831 L118.126761,24.7971831 L110.191549,7.05070423 L108.087324,7.05070423 L100.126761,24.7971831 L102.28169,24.7971831 L104.259155,20.3098592 L113.943662,20.3098592 Z M113.08169,18.3577465 L105.121127,18.3577465 L109.076056,9.35774648 L113.08169,18.3577465 Z M133.194366,16.1267606 L133.194366,21.4760563 C131.825352,22.4140845 130.126761,22.971831 128.529577,22.971831 C124.473239,22.971831 121.202817,19.8535211 121.202817,15.9239437 C121.202817,12.0197183 124.447887,8.90140845 128.504225,8.90140845 C130.48169,8.90140845 132.433803,9.66197183 133.878873,10.9549296 L135.04507,9.43380282 C133.346479,7.93802817 130.96338,7 128.504225,7 C123.28169,7 119.149296,10.9295775 119.149296,15.9239437 C119.149296,20.9183099 123.256338,24.8985915 128.402817,24.8985915 C130.785916,24.8985915 133.24507,23.9605634 134.994366,22.5661972 L134.994366,16.1267606 L133.194366,16.1267606 Z M152.622535,16.1267606 L152.622535,21.4760563 C151.253521,22.4140845 149.55493,22.971831 147.957747,22.971831 C143.901408,22.971831 140.630986,19.8535211 140.630986,15.9239437 C140.630986,12.0197183 143.876056,8.90140845 147.932394,8.90140845 C149.909859,8.90140845 151.861972,9.66197183 153.307042,10.9549296 L154.473239,9.43380282 C152.774648,7.93802817 150.391549,7 147.932394,7 C142.709859,7 138.577465,10.9295775 138.577465,15.9239437 C138.577465,20.9183099 142.684507,24.8985915 147.830986,24.8985915 C150.214085,24.8985915 152.673239,23.9605634 154.422535,22.5661972 L154.422535,16.1267606 L152.622535,16.1267606 Z M161.707042,24.7971831 L161.707042,7.05070423 L159.678873,7.05070423 L159.678873,24.7971831 L161.707042,24.7971831 Z M179.461972,9.0028169 L179.461972,7.05070423 L167.419718,7.05070423 L167.419718,24.7971831 L179.791549,24.7971831 L179.791549,22.8704225 L169.447887,22.8704225 L169.447887,16.7859155 L178.397183,16.7859155 L178.397183,14.8338028 L169.447887,14.8338028 L169.447887,9.0028169 L179.461972,9.0028169 Z M200.816901,7 C195.670423,7 191.56338,10.9295775 191.56338,15.8985915 C191.56338,20.9183099 195.619718,24.8985915 200.740845,24.8985915 C203.2,24.8985915 205.583099,23.8084507 207.332394,22.1605634 L206.090141,20.7661972 C204.695775,22.084507 202.794366,22.8957746 200.842254,22.8957746 C196.83662,22.8957746 193.616901,19.7774648 193.616901,15.8985915 C193.616901,11.9943662 196.83662,8.90140845 200.842254,8.90140845 C202.794366,8.90140845 204.721127,9.73802817 206.090141,11.1323944 L207.307042,9.58591549 C205.608451,7.98873239 203.250704,7 200.816901,7 L200.816901,7 Z M222.476056,20.3098592 L224.453521,24.7971831 L226.659155,24.7971831 L218.723944,7.05070423 L216.619718,7.05070423 L208.659155,24.7971831 L210.814085,24.7971831 L212.791549,20.3098592 L222.476056,20.3098592 Z M221.614085,18.3577465 L213.653521,18.3577465 L217.608451,9.35774648 L221.614085,18.3577465 Z M231.814085,24.7971831 L231.814085,7.05070423 L229.785916,7.05070423 L229.785916,24.7971831 L231.814085,24.7971831 Z" id="R.-MAGGIE-CAI"></path>
                <g id="logo2">
                    <g id="Asset-1">
                        <g id="Layer_2">
                            <g id="Layer_1-2">
                                <path d="M27.4178404,4.58215962 C21.0779729,-1.51907793 11.0207591,-1.42263428 4.79906238,4.79906238 C-1.42263428,11.0207591 -1.51907793,21.0779729 4.58215962,27.4178404 C10.9220271,33.5190779 20.9792409,33.4226343 27.2009376,27.2009376 C33.4226343,20.9792409 33.5190779,10.9220271 27.4178404,4.58215962 L27.4178404,4.58215962 Z M9.23943662,11.4321127 L9.23943662,3.86328638 C10.7357713,3.03216503 12.371408,2.4815219 14.0657277,2.23849765 L9.23943662,11.4321127 Z M16,3.39455399 L22.6614085,15.9849765 L16,28.6039437 L9.38516432,16 L16,3.39455399 Z M9.23943662,20.5678873 L14.0657277,29.7615023 C12.371408,29.5184781 10.7357713,28.967835 9.23943662,28.1367136 L9.23943662,20.5678873 Z M22.7605634,20.6249765 L22.7605634,28.1367136 C21.2683243,28.9719435 19.6337783,29.522396 17.9402817,29.76 L22.7605634,20.6249765 Z M22.7605634,11.3517371 L17.9425352,2.24 C19.635206,2.47764179 21.2689614,3.02783073 22.7605634,3.86253521 L22.7605634,11.3517371 Z M2.10328638,16 C2.09380894,11.9302512 3.88046219,8.06365865 6.98591549,5.43323944 L6.98591549,26.5667606 C3.88046219,23.9363413 2.09380894,20.0697488 2.10328638,16 L2.10328638,16 Z M25.0140845,26.5675117 L25.0140845,5.43248826 C28.1117722,8.069121 29.8966077,11.932138 29.8966077,16 C29.8966077,20.067862 28.1117722,23.930879 25.0140845,26.5675117 L25.0140845,26.5675117 Z" id="Shape"></path>
                            </g>
                        </g>
                    </g>
                </g>
            </g>
        </g>
    </g>
</svg>