<?xml version="1.0" encoding="UTF-8" standalone="no"?>
<svg width="216px" height="32px" viewBox="0 0 216 32" version="1.1" xmlns="http://www.w3.org/2000/svg" xmlns:xlink="http://www.w3.org/1999/xlink">
    <!-- Generator: Sketch 39.1 (31720) - http://www.bohemiancoding.com/sketch -->
    <title>Group 2</title>
    <desc>Created with Sketch.</desc>
    <defs></defs>
    <g id="Page-1" stroke="none" stroke-width="1" fill="none" fill-rule="evenodd">
        <g id="Desktop-Copy-2" transform="translate(-608.000000, -259.000000)">
            <g id="Group-2" transform="translate(608.000000, 259.000000)">
                <g id="logo2" fill="#3A4351">
                    <g id="Asset-1">
                        <g id="Layer_2">
                            <g id="Layer_1-2">
                                <path d="M27.4178404,4.58215962 C21.0779729,-1.51907793 11.0207591,-1.42263428 4.79906238,4.79906238 C-1.42263428,11.0207591 -1.51907793,21.0779729 4.58215962,27.4178404 C10.9220271,33.5190779 20.9792409,33.4226343 27.2009376,27.2009376 C33.4226343,20.9792409 33.5190779,10.9220271 27.4178404,4.58215962 L27.4178404,4.58215962 Z M9.23943662,11.4321127 L9.23943662,3.86328638 C10.7357713,3.03216503 12.371408,2.4815219 14.0657277,2.23849765 L9.23943662,11.4321127 Z M16,3.39455399 L22.6614085,15.9849765 L16,28.6039437 L9.38516432,16 L16,3.39455399 Z M9.23943662,20.5678873 L14.0657277,29.7615023 C12.371408,29.5184781 10.7357713,28.967835 9.23943662,28.1367136 L9.23943662,20.5678873 Z M22.7605634,20.6249765 L22.7605634,28.1367136 C21.2683243,28.9719435 19.6337783,29.522396 17.9402817,29.76 L22.7605634,20.6249765 Z M22.7605634,11.3517371 L17.9425352,2.24 C19.635206,2.47764179 21.2689614,3.02783073 22.7605634,3.86253521 L22.7605634,11.3517371 Z M2.10328638,16 C2.09380894,11.9302512 3.88046219,8.06365865 6.98591549,5.43323944 L6.98591549,26.5667606 C3.88046219,23.9363413 2.09380894,20.0697488 2.10328638,16 L2.10328638,16 Z M25.0140845,26.5675117 L25.0140845,5.43248826 C28.1117722,8.069121 29.8966077,11.932138 29.8966077,16 C29.8966077,20.067862 28.1117722,23.930879 25.0140845,26.5675117 L25.0140845,26.5675117 Z" id="Shape"></path>
                            </g>
                        </g>
                    </g>
                </g>
                <path d="M54.9775281,23.7977528 L57.988764,23.7977528 L54.4606742,18.5393258 C56.5505618,17.7303371 57.7191011,15.9550562 57.7191011,13.4382022 C57.7191011,10.0224719 55.4044944,8.06741573 51.3820225,8.06741573 L45,8.06741573 L45,23.7977528 L47.6516854,23.7977528 L47.6516854,19.0561798 L51.3820225,19.0561798 C51.6292135,19.0561798 51.8764045,19.0561798 52.1011236,19.0337079 L54.9775281,23.7977528 Z M47.6516854,16.6741573 L47.6516854,10.4494382 L51.3820225,10.4494382 C53.8089888,10.4494382 55.2022472,11.4382022 55.2022472,13.505618 C55.2022472,15.6404494 53.8089888,16.6741573 51.3820225,16.6741573 L47.6516854,16.6741573 Z M62.3101805,21.0337079 C61.5011917,21.0337079 60.8944501,21.6404494 60.8944501,22.494382 C60.8944501,23.3707865 61.5011917,24 62.3101805,24 C63.1191692,24 63.7259108,23.3707865 63.7259108,22.494382 C63.7259108,21.6404494 63.1191692,21.0337079 62.3101805,21.0337079 L62.3101805,21.0337079 Z M92.114062,23.7977528 L92.114062,8.06741573 L88.9904665,8.06741573 L83.8219272,18.5168539 L78.630916,8.06741573 L75.4848485,8.06741573 L75.4848485,23.7977528 L77.9792306,23.7977528 L77.9792306,12.0449438 L82.9455227,22.1573034 L84.6758598,22.1573034 L89.6421519,12.0449438 L89.6646238,23.7977528 L92.114062,23.7977528 Z M107.109636,20.247191 L108.615254,23.7977528 L111.446714,23.7977528 L104.57031,8.06741573 L101.851209,8.06741573 L94.9073886,23.7977528 L97.6714335,23.7977528 L99.1770515,20.247191 L107.109636,20.247191 Z M106.0984,17.8876404 L100.165816,17.8876404 L103.132108,10.8988764 L106.0984,17.8876404 Z M124.57712,16.0674157 L124.57712,20.4494382 C123.453524,21.1235955 122.127681,21.5280899 120.959142,21.5280899 C117.745659,21.5280899 115.206333,19.0786517 115.206333,15.9325843 C115.206333,12.8089888 117.723187,10.3595506 120.93667,10.3595506 C122.57712,10.3595506 124.262513,11.0337079 125.475996,12.1573034 L126.981614,10.2022472 C125.431052,8.85393258 123.183861,8 120.93667,8 C116.172625,8 112.509704,11.4382022 112.509704,15.9325843 C112.509704,20.4269663 116.127681,23.9101124 120.779367,23.9101124 C122.93667,23.9101124 125.296221,23.0786517 126.891726,21.8651685 L126.891726,16.0674157 L124.57712,16.0674157 Z M142.089547,16.0674157 L142.089547,20.4494382 C140.965952,21.1235955 139.640109,21.5280899 138.47157,21.5280899 C135.258087,21.5280899 132.718761,19.0786517 132.718761,15.9325843 C132.718761,12.8089888 135.235615,10.3595506 138.449098,10.3595506 C140.089547,10.3595506 141.774941,11.0337079 142.988424,12.1573034 L144.494042,10.2022472 C142.94348,8.85393258 140.696289,8 138.449098,8 C133.685053,8 130.022132,11.4382022 130.022132,15.9325843 C130.022132,20.4269663 133.640109,23.9101124 138.291794,23.9101124 C140.449098,23.9101124 142.808648,23.0786517 144.404154,21.8651685 L144.404154,16.0674157 L142.089547,16.0674157 Z M151.489615,23.7977528 L151.489615,8.06741573 L148.83793,8.06741573 L148.83793,23.7977528 L151.489615,23.7977528 Z M167.541369,10.4494382 L167.541369,8.06741573 L156.305414,8.06741573 L156.305414,23.7977528 L167.811032,23.7977528 L167.811032,21.4157303 L158.957099,21.4157303 L158.957099,17.0786517 L166.642493,17.0786517 L166.642493,14.6966292 L158.957099,14.6966292 L158.957099,10.4494382 L167.541369,10.4494382 Z M186.671093,8 C182.019408,8 178.40143,11.4382022 178.40143,15.9101124 C178.40143,20.4269663 181.974464,23.9101124 186.581206,23.9101124 C188.805925,23.9101124 191.075588,22.8988764 192.671093,21.3258427 L191.098059,19.5730337 C189.907048,20.7191011 188.289071,21.4382022 186.716037,21.4382022 C183.56997,21.4382022 181.098059,18.988764 181.098059,15.8876404 C181.098059,12.7865169 183.56997,10.3595506 186.716037,10.3595506 C188.311543,10.3595506 189.951992,11.1235955 191.098059,12.3595506 L192.648621,10.4269663 C191.120531,8.92134831 188.895812,8 186.671093,8 L186.671093,8 Z M206.093633,20.247191 L207.599251,23.7977528 L210.430712,23.7977528 L203.554307,8.06741573 L200.835206,8.06741573 L193.891386,23.7977528 L196.655431,23.7977528 L198.161049,20.247191 L206.093633,20.247191 Z M205.082397,17.8876404 L199.149813,17.8876404 L202.116105,10.8988764 L205.082397,17.8876404 Z M215.853252,23.7977528 L215.853252,8.06741573 L213.201566,8.06741573 L213.201566,23.7977528 L215.853252,23.7977528 Z" id="R.-MAGGIE-CAI" fill="#657082"></path>
            </g>
        </g>
    </g>
</svg>