<?xml version="1.0" encoding="UTF-8" standalone="no"?>
<svg width="220px" height="22px" viewBox="0 0 220 22" version="1.1" xmlns="http://www.w3.org/2000/svg" xmlns:xlink="http://www.w3.org/1999/xlink">
    <!-- Generator: Sketch 39.1 (31720) - http://www.bohemiancoding.com/sketch -->
    <title>R. MAGGIE CAI</title>
    <desc>Created with Sketch.</desc>
    <defs></defs>
    <g id="Page-1" stroke="none" stroke-width="1" fill="none" fill-rule="evenodd">
        <g id="Desktop-Copy-2" transform="translate(-608.000000, -432.000000)" fill="#3A4351">
            <path d="M621.74,453.06 L624.47,453.06 L619.55,445.92 C622.58,444.93 624.26,442.59 624.26,439.11 C624.26,434.64 621.23,432.06 615.98,432.06 L608,432.06 L608,453.06 L610.4,453.06 L610.4,446.43 L615.98,446.43 C616.46,446.43 616.94,446.4 617.39,446.37 L621.74,453.06 Z M610.4,444.12 L610.4,434.37 L615.98,434.37 C619.79,434.37 621.95,435.99 621.95,439.17 C621.95,442.44 619.79,444.12 615.98,444.12 L610.4,444.12 Z M629.91,450.18 C629.07,450.18 628.44,450.84 628.44,451.74 C628.44,452.64 629.07,453.3 629.91,453.3 C630.72,453.3 631.35,452.64 631.35,451.74 C631.35,450.84 630.72,450.18 629.91,450.18 L629.91,450.18 Z M668.32,453.06 L668.32,432.06 L665.38,432.06 L657.73,447.18 L650.05,432.06 L647.08,432.06 L647.08,453.06 L649.36,453.06 L649.36,435.75 L656.98,450.84 L658.42,450.84 L666.07,435.75 L666.1,453.06 L668.32,453.06 Z M688.4,447.75 L690.74,453.06 L693.35,453.06 L683.96,432.06 L681.47,432.06 L672.05,453.06 L674.6,453.06 L676.94,447.75 L688.4,447.75 Z M687.38,445.44 L677.96,445.44 L682.64,434.79 L687.38,445.44 Z M711.18,442.8 L711.18,449.13 C709.56,450.24 707.55,450.9 705.66,450.9 C700.86,450.9 696.99,447.21 696.99,442.56 C696.99,437.94 700.83,434.25 705.63,434.25 C707.97,434.25 710.28,435.15 711.99,436.68 L713.37,434.88 C711.36,433.11 708.54,432 705.63,432 C699.45,432 694.56,436.65 694.56,442.56 C694.56,448.47 699.42,453.18 705.51,453.18 C708.33,453.18 711.24,452.07 713.31,450.42 L713.31,442.8 L711.18,442.8 Z M734.17,442.8 L734.17,449.13 C732.55,450.24 730.54,450.9 728.65,450.9 C723.85,450.9 719.98,447.21 719.98,442.56 C719.98,437.94 723.82,434.25 728.62,434.25 C730.96,434.25 733.27,435.15 734.98,436.68 L736.36,434.88 C734.35,433.11 731.53,432 728.62,432 C722.44,432 717.55,436.65 717.55,442.56 C717.55,448.47 722.41,453.18 728.5,453.18 C731.32,453.18 734.23,452.07 736.3,450.42 L736.3,442.8 L734.17,442.8 Z M744.92,453.06 L744.92,432.06 L742.52,432.06 L742.52,453.06 L744.92,453.06 Z M765.93,434.37 L765.93,432.06 L751.68,432.06 L751.68,453.06 L766.32,453.06 L766.32,450.78 L754.08,450.78 L754.08,443.58 L764.67,443.58 L764.67,441.27 L754.08,441.27 L754.08,434.37 L765.93,434.37 Z M791.2,432 C785.11,432 780.25,436.65 780.25,442.53 C780.25,448.47 785.05,453.18 791.11,453.18 C794.02,453.18 796.84,451.89 798.91,449.94 L797.44,448.29 C795.79,449.85 793.54,450.81 791.23,450.81 C786.49,450.81 782.68,447.12 782.68,442.53 C782.68,437.91 786.49,434.25 791.23,434.25 C793.54,434.25 795.82,435.24 797.44,436.89 L798.88,435.06 C796.87,433.17 794.08,432 791.2,432 L791.2,432 Z M816.83,447.75 L819.17,453.06 L821.78,453.06 L812.39,432.06 L809.9,432.06 L800.48,453.06 L803.03,453.06 L805.37,447.75 L816.83,447.75 Z M815.81,445.44 L806.39,445.44 L811.07,434.79 L815.81,445.44 Z M827.88,453.06 L827.88,432.06 L825.48,432.06 L825.48,453.06 L827.88,453.06 Z" id="R.-MAGGIE-CAI"></path>
        </g>
    </g>
</svg>