<?xml version="1.0" encoding="UTF-8" standalone="no"?>
<svg width="193px" height="19px" viewBox="0 0 193 19" version="1.1" xmlns="http://www.w3.org/2000/svg" xmlns:xlink="http://www.w3.org/1999/xlink">
    <!-- Generator: Sketch 39.1 (31720) - http://www.bohemiancoding.com/sketch -->
    <title>R. MAGGIE CAI</title>
    <desc>Created with Sketch.</desc>
    <defs></defs>
    <g id="Page-1" stroke="none" stroke-width="1" fill="none" fill-rule="evenodd">
        <g id="Desktop-Copy-2" transform="translate(-660.000000, -241.000000)" fill="#657082">
            <path d="M671.984719,259.682472 L675.37236,259.682472 L671.403258,253.766742 C673.754382,252.856629 675.068989,250.859438 675.068989,248.027978 C675.068989,244.185281 672.465056,241.985843 667.939775,241.985843 L660.76,241.985843 L660.76,259.682472 L663.743146,259.682472 L663.743146,254.348202 L667.939775,254.348202 C668.217865,254.348202 668.495955,254.348202 668.748764,254.322921 L671.984719,259.682472 Z M663.743146,251.668427 L663.743146,244.665618 L667.939775,244.665618 C670.670112,244.665618 672.237528,245.777978 672.237528,248.10382 C672.237528,250.505506 670.670112,251.668427 667.939775,251.668427 L663.743146,251.668427 Z M680.233953,256.572921 C679.323841,256.572921 678.641256,257.255506 678.641256,258.21618 C678.641256,259.202135 679.323841,259.91 680.233953,259.91 C681.144065,259.91 681.82665,259.202135 681.82665,258.21618 C681.82665,257.255506 681.144065,256.572921 680.233953,256.572921 L680.233953,256.572921 Z M713.76332,259.682472 L713.76332,241.985843 L710.249275,241.985843 L704.434668,253.741461 L698.59478,241.985843 L695.055455,241.985843 L695.055455,259.682472 L697.861634,259.682472 L697.861634,246.460562 L703.448713,257.836966 L705.395342,257.836966 L710.982421,246.460562 L711.007702,259.682472 L713.76332,259.682472 Z M730.63334,255.68809 L732.32716,259.682472 L735.512554,259.682472 L727.776599,241.985843 L724.71761,241.985843 L716.905812,259.682472 L720.015363,259.682472 L721.709183,255.68809 L730.63334,255.68809 Z M729.4957,253.033596 L722.821542,253.033596 L726.158621,245.171236 L729.4957,253.033596 Z M750.28426,250.985843 L750.28426,255.915618 C749.020215,256.674045 747.528642,257.129101 746.214035,257.129101 C742.598866,257.129101 739.742125,254.373483 739.742125,250.834157 C739.742125,247.320112 742.573585,244.564494 746.188754,244.564494 C748.03426,244.564494 749.930327,245.322921 751.295496,246.586966 L752.989316,244.387528 C751.244934,242.870674 748.716844,241.91 746.188754,241.91 C740.829203,241.91 736.708417,245.777978 736.708417,250.834157 C736.708417,255.890337 740.778642,259.808876 746.011788,259.808876 C748.438754,259.808876 751.093248,258.873483 752.888192,257.508315 L752.888192,250.985843 L750.28426,250.985843 Z M769.985741,250.985843 L769.985741,255.915618 C768.721696,256.674045 767.230123,257.129101 765.915516,257.129101 C762.300347,257.129101 759.443606,254.373483 759.443606,250.834157 C759.443606,247.320112 762.275067,244.564494 765.890235,244.564494 C767.735741,244.564494 769.631808,245.322921 770.996977,246.586966 L772.690797,244.387528 C770.946415,242.870674 768.418325,241.91 765.890235,241.91 C760.530685,241.91 756.409898,245.777978 756.409898,250.834157 C756.409898,255.890337 760.480123,259.808876 765.713269,259.808876 C768.140235,259.808876 770.794729,258.873483 772.589673,257.508315 L772.589673,250.985843 L769.985741,250.985843 Z M780.560817,259.682472 L780.560817,241.985843 L777.577671,241.985843 L777.577671,259.682472 L780.560817,259.682472 Z M798.61904,244.665618 L798.61904,241.985843 L785.978591,241.985843 L785.978591,259.682472 L798.922411,259.682472 L798.922411,257.002697 L788.961737,257.002697 L788.961737,252.123483 L797.607804,252.123483 L797.607804,249.443708 L788.961737,249.443708 L788.961737,244.665618 L798.61904,244.665618 Z M820.13998,241.91 C814.906834,241.91 810.836609,245.777978 810.836609,250.808876 C810.836609,255.890337 814.856272,259.808876 820.038856,259.808876 C822.541665,259.808876 825.095036,258.671236 826.88998,256.901573 L825.120317,254.929663 C823.780429,256.218989 821.960205,257.027978 820.190542,257.027978 C816.651216,257.027978 813.870317,254.27236 813.870317,250.783596 C813.870317,247.294831 816.651216,244.564494 820.190542,244.564494 C821.985485,244.564494 823.830991,245.424045 825.120317,246.814494 L826.864699,244.640337 C825.145598,242.946517 822.642789,241.91 820.13998,241.91 L820.13998,241.91 Z M841.990337,255.68809 L843.684158,259.682472 L846.869551,259.682472 L839.133596,241.985843 L836.074607,241.985843 L828.262809,259.682472 L831.37236,259.682472 L833.06618,255.68809 L841.990337,255.68809 Z M840.852697,253.033596 L834.17854,253.033596 L837.515618,245.171236 L840.852697,253.033596 Z M852.969908,259.682472 L852.969908,241.985843 L849.986762,241.985843 L849.986762,259.682472 L852.969908,259.682472 Z" id="R.-MAGGIE-CAI"></path>
        </g>
    </g>
</svg>