<?xml version="1.0" encoding="UTF-8" standalone="no"?>
<svg width="207px" height="22px" viewBox="0 0 207 22" version="1.1" xmlns="http://www.w3.org/2000/svg" xmlns:xlink="http://www.w3.org/1999/xlink">
    <!-- Generator: Sketch 39.1 (31720) - http://www.bohemiancoding.com/sketch -->
    <title>R. MAGGIE CAI</title>
    <desc>Created with Sketch.</desc>
    <defs></defs>
    <g id="Page-1" stroke="none" stroke-width="1" fill="none" fill-rule="evenodd">
        <g id="Desktop-Copy-2" transform="translate(-503.000000, -635.000000)" fill="#3A4351">
            <path d="M514.74,656 L518.22,656 L513.09,647.99 C515.64,647.66 518.07,645.74 518.07,642.14 C518.07,638.45 515.46,635.99 511.65,635.99 L503.22,635.99 L503.22,656 L506.22,656 L506.22,648.29 L509.97,648.29 L514.74,656 Z M514.98,642.14 C514.98,644.24 513.42,645.65 511.26,645.65 L506.22,645.65 L506.22,638.63 L511.26,638.63 C513.42,638.63 514.98,640.04 514.98,642.14 L514.98,642.14 Z M522.129091,654.44 C522.129091,655.46 522.969091,656.33 523.989091,656.33 C525.009091,656.33 525.879091,655.46 525.879091,654.44 C525.879091,653.42 525.009091,652.58 523.989091,652.58 C522.969091,652.58 522.129091,653.42 522.129091,654.44 L522.129091,654.44 Z M556.587273,656 L559.587273,656 L559.587273,635.99 L555.297273,635.99 L549.477273,650.36 L543.657273,635.99 L539.367273,635.99 L539.367273,656 L542.367273,656 L542.367273,640.1 L548.847273,656 L550.107273,656 L556.587273,640.1 L556.587273,656 Z M579.216364,656 L582.516364,656 L574.566364,635.99 L570.816364,635.99 L562.866364,656 L566.166364,656 L567.786364,651.86 L577.596364,651.86 L579.216364,656 Z M572.676364,638.6 L576.726364,649.19 L568.656364,649.19 L572.676364,638.6 Z M583.905455,646.01 C583.905455,652.25 588.555455,656.39 594.285455,656.39 C597.675455,656.39 600.435455,654.98 602.355455,652.85 L602.355455,645.5 L592.935455,645.5 L592.935455,648.14 L599.355455,648.14 L599.355455,651.74 C598.395455,652.64 596.505455,653.72 594.285455,653.72 C590.115455,653.72 586.995455,650.48 586.995455,646.01 C586.995455,641.51 590.115455,638.33 594.285455,638.33 C596.625455,638.33 598.635455,639.5 599.775455,641.03 L602.205455,639.62 C600.525455,637.37 598.035455,635.66 594.285455,635.66 C588.555455,635.66 583.905455,639.77 583.905455,646.01 L583.905455,646.01 Z M606.264546,646.01 C606.264546,652.25 610.914546,656.39 616.644546,656.39 C620.034546,656.39 622.794546,654.98 624.714546,652.85 L624.714546,645.5 L615.294546,645.5 L615.294546,648.14 L621.714546,648.14 L621.714546,651.74 C620.754546,652.64 618.864546,653.72 616.644546,653.72 C612.474546,653.72 609.354546,650.48 609.354546,646.01 C609.354546,641.51 612.474546,638.33 616.644546,638.33 C618.984546,638.33 620.994546,639.5 622.134546,641.03 L624.564546,639.62 C622.884546,637.37 620.394546,635.66 616.644546,635.66 C610.914546,635.66 606.264546,639.77 606.264546,646.01 L606.264546,646.01 Z M629.463637,656 L632.463637,656 L632.463637,635.99 L629.463637,635.99 L629.463637,656 Z M637.842727,656 L651.282727,656 L651.282727,653.36 L640.842727,653.36 L640.842727,647.12 L651.072727,647.12 L651.072727,644.48 L640.842727,644.48 L640.842727,638.63 L651.282727,638.63 L651.282727,635.99 L637.842727,635.99 L637.842727,656 Z M674.010909,656.36 C677.940909,656.36 680.370909,654.47 681.960909,652.13 L679.410909,650.78 C678.360909,652.46 676.380909,653.69 674.010909,653.69 C669.960909,653.69 666.840909,650.48 666.840909,646.01 C666.840909,641.51 669.960909,638.33 674.010909,638.33 C676.380909,638.33 678.360909,639.56 679.410909,641.24 L681.960909,639.89 C680.400909,637.55 677.940909,635.66 674.010909,635.66 C668.310909,635.66 663.750909,639.86 663.750909,646.01 C663.750909,652.16 668.310909,656.36 674.010909,656.36 L674.010909,656.36 Z M700.03,656 L703.33,656 L695.38,635.99 L691.63,635.99 L683.68,656 L686.98,656 L688.6,651.86 L698.41,651.86 L700.03,656 Z M693.49,638.6 L697.54,649.19 L689.47,649.19 L693.49,638.6 Z M706.639091,656 L709.639091,656 L709.639091,635.99 L706.639091,635.99 L706.639091,656 Z" id="R.-MAGGIE-CAI"></path>
        </g>
    </g>
</svg>