<?xml version="1.0" encoding="UTF-8" standalone="no"?>
<svg width="205px" height="25px" viewBox="0 0 205 25" version="1.1" xmlns="http://www.w3.org/2000/svg" xmlns:xlink="http://www.w3.org/1999/xlink">
    <!-- Generator: Sketch 39.1 (31720) - http://www.bohemiancoding.com/sketch -->
    <title>Group</title>
    <desc>Created with Sketch.</desc>
    <defs></defs>
    <g id="Page-1" stroke="none" stroke-width="1" fill="none" fill-rule="evenodd">
        <g id="Desktop-Copy-2" transform="translate(-172.000000, -646.000000)" fill="#3A4351">
            <g id="Group" transform="translate(172.000000, 646.000000)">
                <path d="M11.7607527,20.2956989 L11.7943548,20.2956989 L19.7580645,0.60483871 L23.4543011,0.60483871 L23.4543011,24.3951613 L21.0349462,24.3951613 L21.0349462,3.72983871 L20.9677419,3.72983871 L12.3655914,24.3951613 L11.0887097,24.3951613 L2.48655914,3.72983871 L2.41935484,3.72983871 L2.41935484,24.3951613 L0,24.3951613 L0,0.60483871 L3.69623656,0.60483871 L11.7607527,20.2956989 Z M30.7235663,24.3951613 L28.0689964,24.3951613 L38.3512545,0.60483871 L40.703405,0.60483871 L50.9184588,24.3951613 L48.2302868,24.3951613 L45.609319,18.1451613 L33.3109319,18.1451613 L30.7235663,24.3951613 Z M34.21819,15.9274194 L44.702061,15.9274194 L39.4601255,3.29301075 L34.21819,15.9274194 Z M72.9726703,4.87231183 C72.1438131,3.99865155 71.1581599,3.32101495 70.0156811,2.83938172 C68.8732022,2.35774849 67.5627315,2.11693548 66.0842294,2.11693548 C64.5609243,2.11693548 63.1888502,2.3969506 61.967966,2.95698925 C60.7470818,3.51702789 59.7110258,4.27306872 58.8597671,5.22513441 C58.0085083,6.1772001 57.353273,7.28045968 56.8940413,8.53494624 C56.4348096,9.7894328 56.2051972,11.1111042 56.2051972,12.5 C56.2051972,13.8888958 56.4348096,15.2105672 56.8940413,16.4650538 C57.353273,17.7195403 58.0085083,18.8171996 58.8597671,19.7580645 C59.7110258,20.6989294 60.7470818,21.44937 61.967966,22.0094086 C63.1888502,22.5694472 64.5609243,22.8494624 66.0842294,22.8494624 C67.4283222,22.8494624 68.6603887,22.7038545 69.780466,22.4126344 C70.9005433,22.1214143 71.8077923,21.7517944 72.5022402,21.3037634 L72.5022402,14.0793011 L66.9578854,14.0793011 L66.9578854,11.9623656 L74.921595,11.9623656 L74.921595,22.6814516 C73.6223054,23.4655057 72.2222298,24.0479372 70.7213262,24.4287634 C69.2204227,24.8095897 67.6635386,25 66.0506273,25 C64.2585036,25 62.6008141,24.6863831 61.077509,24.0591398 C59.5542039,23.4318965 58.2437331,22.5638496 57.1460574,21.4549731 C56.0483817,20.3460966 55.1915354,19.0300255 54.5754929,17.5067204 C53.9594504,15.9834153 53.6514337,14.3145252 53.6514337,12.5 C53.6514337,10.6854748 53.9650507,9.01658468 54.592294,7.49327957 C55.2195372,5.96997446 56.0875841,4.65390339 57.1964606,3.54502688 C58.3053371,2.43615037 59.6158079,1.56810349 61.1279122,0.940860215 C62.6400166,0.313616935 64.2809052,0 66.0506273,0 C67.9547587,0 69.6124482,0.280015121 71.0237456,0.840053763 C72.4350429,1.40009241 73.6447083,2.18413474 74.6527778,3.1922043 L72.9726703,4.87231183 Z M100.268817,4.87231183 C99.4399601,3.99865155 98.4543069,3.32101495 97.311828,2.83938172 C96.1693492,2.35774849 94.8588784,2.11693548 93.3803764,2.11693548 C91.8570713,2.11693548 90.4849972,2.3969506 89.264113,2.95698925 C88.0432287,3.51702789 87.0071728,4.27306872 86.1559141,5.22513441 C85.3046553,6.1772001 84.6494199,7.28045968 84.1901882,8.53494624 C83.7309566,9.7894328 83.5013442,11.1111042 83.5013442,12.5 C83.5013442,13.8888958 83.7309566,15.2105672 84.1901882,16.4650538 C84.6494199,17.7195403 85.3046553,18.8171996 86.1559141,19.7580645 C87.0071728,20.6989294 88.0432287,21.44937 89.264113,22.0094086 C90.4849972,22.5694472 91.8570713,22.8494624 93.3803764,22.8494624 C94.7244692,22.8494624 95.9565357,22.7038545 97.076613,22.4126344 C98.1966903,22.1214143 99.1039393,21.7517944 99.7983872,21.3037634 L99.7983872,14.0793011 L94.2540323,14.0793011 L94.2540323,11.9623656 L102.217742,11.9623656 L102.217742,22.6814516 C100.918452,23.4655057 99.5183768,24.0479372 98.0174732,24.4287634 C96.5165696,24.8095897 94.9596856,25 93.3467743,25 C91.5546506,25 89.8969611,24.6863831 88.373656,24.0591398 C86.8503509,23.4318965 85.5398801,22.5638496 84.4422044,21.4549731 C83.3445286,20.3460966 82.4876824,19.0300255 81.8716399,17.5067204 C81.2555974,15.9834153 80.9475807,14.3145252 80.9475807,12.5 C80.9475807,10.6854748 81.2611977,9.01658468 81.8884409,7.49327957 C82.5156842,5.96997446 83.3837311,4.65390339 84.4926076,3.54502688 C85.6014841,2.43615037 86.9119549,1.56810349 88.4240592,0.940860215 C89.9361635,0.313616935 91.5770522,0 93.3467743,0 C95.2509057,0 96.9085952,0.280015121 98.3198925,0.840053763 C99.7311899,1.40009241 100.940855,2.18413474 101.948925,3.1922043 L100.268817,4.87231183 Z M111.939964,24.3951613 L109.520609,24.3951613 L109.520609,0.60483871 L111.939964,0.60483871 L111.939964,24.3951613 Z M121.796595,22.2446237 L134.53181,22.2446237 L134.53181,24.3951613 L119.37724,24.3951613 L119.37724,0.60483871 L134.128584,0.60483871 L134.128584,2.75537634 L121.796595,2.75537634 L121.796595,10.9543011 L133.322133,10.9543011 L133.322133,13.0712366 L121.796595,13.0712366 L121.796595,22.2446237 Z" id="MAGGIE"></path>
                <path d="M147,15.2906209 C147,21.1030383 150.599736,25 155.157199,25 C158.59181,25 162.488771,22.8863937 165.428005,17.1400264 C165.527081,16.9418758 165.064729,16.7107001 164.965654,16.8758256 C161.597094,23.0184941 157.931308,24.4055482 155.190225,24.4055482 C152.284016,24.4055482 150.500661,22.7542933 150.500661,18.9233818 C150.500661,13.3091149 153.142668,5.77939234 156.445178,2.47688243 C157.832232,1.08982827 159.351387,0.594451783 160.870542,0.594451783 C165.494055,0.594451783 166.121532,3.665786 166.121532,7.99207398 C166.121532,8.19022457 166.220608,8.25627477 166.385733,8.25627477 C166.649934,8.25627477 166.682959,8.19022457 166.715984,8.05812417 L168.82959,0.693527081 C168.895641,0.429326288 168.796565,0.330250991 168.63144,0.330250991 C168.499339,0.330250991 168.400264,0.36327609 168.169089,0.660501982 C167.805812,1.08982827 167.376486,1.32100396 166.616909,1.32100396 C164.833554,1.32100396 163.743725,0 160.870542,0 C153.770145,0 147,7.0343461 147,15.2906209 L147,15.2906209 Z M164.970658,24.3064729 C164.970658,24.5706737 165.036708,24.6036988 165.168808,24.6036988 L172.236179,24.6036988 C172.36828,24.6036988 172.43433,24.5706737 172.43433,24.3064729 C172.43433,24.1083223 172.36828,24.009247 172.236179,24.009247 C168.966695,23.8771466 168.93367,22.9524439 171.938954,18.0977543 L173.193907,16.0501982 L180.921781,16.0501982 L181.351107,23.4478203 C181.384132,23.9431968 181.318082,24.009247 180.822705,24.009247 L178.048597,24.009247 C177.916497,24.009247 177.850446,24.0422721 177.850446,24.3064729 C177.850446,24.5706737 177.916497,24.6036988 178.048597,24.6036988 L187.229574,24.6036988 C187.361675,24.6036988 187.427725,24.5706737 187.427725,24.3064729 C187.427725,24.0422721 187.361675,24.009247 187.229574,24.009247 L185.809495,24.009247 C185.314119,24.009247 185.281094,23.9431968 185.248069,23.4478203 L183.827989,0.36327609 C183.827989,0.165125495 183.761939,0.0990752972 183.563788,0.0990752972 L182.705136,0.0990752972 C182.54001,0.0990752972 182.374885,0.198150594 182.27581,0.36327609 L171.377527,17.8665786 C168.108042,23.1175694 167.24939,23.8771466 165.168808,24.009247 C165.036708,24.009247 164.970658,24.1083223 164.970658,24.3064729 L164.970658,24.3064729 Z M180.327329,4.59048877 L180.459429,4.59048877 C180.459429,5.71334214 180.525479,8.85072655 180.59153,9.94055482 L180.888755,15.4557464 L173.557183,15.4557464 L180.327329,4.59048877 Z M188.456507,24.3064729 C188.456507,24.5706737 188.522557,24.6036988 188.654658,24.6036988 L198.099836,24.6036988 C198.231936,24.6036988 198.297986,24.5706737 198.297986,24.3064729 C198.297986,24.0422721 198.231936,24.009247 198.099836,24.009247 L195.854129,24.009247 C195.358753,24.009247 195.325728,23.9431968 195.457828,23.4478203 L201.765622,1.48612946 C201.897722,0.990752972 201.996798,0.924702774 202.492174,0.924702774 L204.770906,0.924702774 C204.903006,0.924702774 204.969056,0.891677675 204.969056,0.627476882 C204.969056,0.36327609 204.903006,0.330250991 204.770906,0.330250991 L195.490853,0.330250991 C195.358753,0.330250991 195.292702,0.36327609 195.292702,0.627476882 C195.292702,0.891677675 195.358753,0.924702774 195.490853,0.924702774 L197.637484,0.924702774 C198.132861,0.924702774 198.165886,0.990752972 198.033786,1.48612946 L191.725992,23.4478203 C191.593891,23.9431968 191.494816,24.009247 190.99944,24.009247 L188.654658,24.009247 C188.522557,24.009247 188.456507,24.0422721 188.456507,24.3064729 L188.456507,24.3064729 Z" id="CAI"></path>
            </g>
        </g>
    </g>
</svg>