<?xml version="1.0" encoding="UTF-8" standalone="no"?>
<svg width="219px" height="28px" viewBox="0 0 219 28" version="1.1" xmlns="http://www.w3.org/2000/svg" xmlns:xlink="http://www.w3.org/1999/xlink">
    <!-- Generator: Sketch 39.1 (31720) - http://www.bohemiancoding.com/sketch -->
    <title>Group 2</title>
    <desc>Created with Sketch.</desc>
    <defs></defs>
    <g id="Page-1" stroke="none" stroke-width="1" fill="none" fill-rule="evenodd">
        <g id="Desktop" transform="translate(-709.000000, -823.000000)" fill="#3A4351">
            <g id="Group-2" transform="translate(709.000000, 823.000000)">
                <path d="M155,13.608 C155,21.384 160.292,27.216 166.808,27.216 C170.12,27.216 171.452,25.632 173.288,25.632 C173.936,25.632 174.512,25.92 174.908,26.532 C175.088,26.82 175.16,26.892 175.376,26.892 C175.592,26.892 175.628,26.784 175.628,26.496 L175.628,17.496 C175.628,17.352 175.448,17.28 175.304,17.28 C175.124,17.28 175.016,17.352 174.98,17.496 C174.152,23.184 171.128,26.568 166.808,26.568 C165.152,26.568 163.604,25.992 162.416,24.804 C160.868,23.256 160.076,21.06 160.076,13.608 C160.076,6.156 160.868,3.96 162.416,2.412 C163.604,1.224 165.152,0.648 166.808,0.648 C171.668,0.648 173.756,3.168 174.584,8.496 C174.62,8.64 174.728,8.712 174.908,8.712 C175.088,8.712 175.232,8.604 175.232,8.496 L175.232,0.72 C175.232,0.432 175.16,0.324 174.98,0.324 C174.836,0.324 174.692,0.396 174.512,0.684 C174.224,1.152 173.72,1.404 173.072,1.404 C171.632,1.404 169.976,0 166.808,0 C160.292,0 155,5.832 155,13.608 L155,13.608 Z M204.52,26.46 C204.52,26.172 204.448,26.136 204.304,26.136 L202.684,26.136 C202.144,26.136 202.072,26.064 201.892,25.524 L193.108,0.36 C193.036,0.144 192.964,0.072 192.748,0.072 L191.812,0.072 C191.632,0.072 191.488,0.18 191.416,0.36 L185.008,19.44 C183.1,25.128 182.344,25.992 180.328,26.136 C180.112,26.136 180.04,26.244 180.04,26.46 C180.04,26.748 180.112,26.784 180.256,26.784 L187.636,26.784 C187.78,26.784 187.852,26.748 187.852,26.46 C187.852,26.172 187.78,26.136 187.636,26.136 C184.18,25.992 183.892,24.84 185.656,19.62 L186.376,17.46 L194.548,17.46 L197.356,25.524 C197.536,26.064 197.5,26.136 196.96,26.136 L194.188,26.136 C194.044,26.136 193.972,26.172 193.972,26.46 C193.972,26.748 194.044,26.784 194.188,26.784 L204.304,26.784 C204.448,26.784 204.52,26.748 204.52,26.46 L204.52,26.46 Z M190.408,5.436 L190.552,5.436 C190.84,6.66 191.272,7.992 191.668,9.18 L194.332,16.812 L186.556,16.812 L190.408,5.436 Z M207.564,26.46 C207.564,26.748 207.636,26.784 207.78,26.784 L218.472,26.784 C218.616,26.784 218.688,26.748 218.688,26.46 C218.688,26.172 218.616,26.136 218.472,26.136 L215.952,26.136 C215.412,26.136 215.34,26.064 215.34,25.524 L215.34,1.584 C215.34,1.044 215.412,0.972 215.952,0.972 L218.364,0.972 C218.508,0.972 218.58,0.936 218.58,0.648 C218.58,0.36 218.508,0.324 218.364,0.324 L207.888,0.324 C207.744,0.324 207.672,0.36 207.672,0.648 C207.672,0.936 207.744,0.972 207.888,0.972 L210.3,0.972 C210.84,0.972 210.912,1.044 210.912,1.584 L210.912,25.524 C210.912,26.064 210.84,26.136 210.3,26.136 L207.78,26.136 C207.636,26.136 207.564,26.208 207.564,26.46 L207.564,26.46 Z" id="CAI"></path>
                <path d="M24.9503296,25.8361401 L24.9503296,0.0369087716 L22.8096208,0.0369087716 L12.5120736,20.3367331 L2.14070875,0.0369087716 L0,0.0369087716 L0,25.8361401 L1.47635086,25.8361401 L1.47635086,2.17761752 L12.1429858,23.0310735 L12.8442525,23.0310735 L23.4370699,2.17761752 L23.4739787,25.8361401 L24.9503296,25.8361401 Z M49.4823597,18.4912946 L52.8410579,25.8361401 L54.5388614,25.8361401 L42.7280545,0.0369087716 L41.0671598,0.0369087716 L29.3670792,25.8361401 L31.0648827,25.8361401 L34.3866722,18.4912946 L49.4823597,18.4912946 Z M48.7810931,16.9411261 L35.05103,16.9411261 L41.8791528,1.80852981 L48.7810931,16.9411261 Z M76.7087302,13.1764314 L76.7087302,21.7392664 C74.6049302,23.4001612 71.8736811,24.396698 69.0317057,24.396698 C62.4988531,24.396698 57.18399,19.2663788 57.18399,12.91807 C57.18399,6.60667011 62.4988531,1.47635086 69.0317057,1.47635086 C72.1320425,1.47635086 75.0478355,2.62052278 77.1885442,4.5397789 L78.1112635,3.39560698 C75.7121934,1.291807 72.5011302,0 69.0317057,0 C61.6499514,0 55.6338216,5.75776836 55.6338216,12.91807 C55.6338216,20.0783717 61.6130426,25.8730489 68.9578882,25.8730489 C72.3904039,25.8730489 75.7121934,24.5812419 78.1112635,22.5143507 L78.1112635,13.1764314 L76.7087302,13.1764314 Z M104.378006,13.1764314 L104.378006,21.7392664 C102.274206,23.4001612 99.5429569,24.396698 96.7009814,24.396698 C90.1681289,24.396698 84.8532658,19.2663788 84.8532658,12.91807 C84.8532658,6.60667011 90.1681289,1.47635086 96.7009814,1.47635086 C99.8013183,1.47635086 102.717111,2.62052278 104.85782,4.5397789 L105.780539,3.39560698 C103.381469,1.291807 100.170406,0 96.7009814,0 C89.3192271,0 83.3030974,5.75776836 83.3030974,12.91807 C83.3030974,20.0783717 89.2823184,25.8730489 96.6271639,25.8730489 C100.05968,25.8730489 103.381469,24.5812419 105.780539,22.5143507 L105.780539,13.1764314 L104.378006,13.1764314 Z M115.253791,25.8361401 L115.253791,0.0369087716 L113.703622,0.0369087716 L113.703622,25.8361401 L115.253791,25.8361401 Z M140.450179,1.55016841 L140.450179,0.0369087716 L123.804323,0.0369087716 L123.804323,25.8361401 L140.929993,25.8361401 L140.929993,24.3228805 L125.354491,24.3228805 L125.354491,13.3978841 L138.789284,13.3978841 L138.789284,11.8477157 L125.354491,11.8477157 L125.354491,1.55016841 L140.450179,1.55016841 Z" id="MAGGIE"></path>
            </g>
        </g>
    </g>
</svg>